<?xml version="1.0" standalone="no"?>
<!DOCTYPE svg PUBLIC "-//W3C//DTD SVG 20010904//EN"
 "http://www.w3.org/TR/2001/REC-SVG-20010904/DTD/svg10.dtd">
<svg version="1.0" xmlns="http://www.w3.org/2000/svg"
 width="660.000000pt" height="660.000000pt" viewBox="0 0 730.000000 660.000000"
 preserveAspectRatio="xMidYMid meet">

<style>
    path {
        fill: black;
    }
    @media (prefers-color-scheme: dark) {
        path { fill: white; }
    }
</style>

<g transform="translate(0.000000,660.000000) scale(0.100000,-0.100000)"
fill="#000000" stroke="none">
<path d="M3682 5517 l-732 -732 87 -88 88 -87 372 372 373 373 728 -728 727
-727 88 87 87 88 -727 727 -728 728 180 180 c99 99 184 180 190 180 5 0 323
-313 705 -695 l695 -695 88 88 87 87 -788 788 -787 787 -733 -733z"/>
<path d="M2791 3589 c-371 -374 -679 -679 -685 -679 -14 0 -336 321 -336 335
0 5 159 169 352 362 l353 353 -88 87 -87 88 -445 -445 -445 -445 1502 -1502
1503 -1503 1502 1502 1503 1503 -395 395 -395 395 -87 -88 -88 -87 303 -303
c166 -166 302 -307 302 -312 0 -6 -288 -298 -640 -650 l-640 -640 -320 320
-320 320 460 460 460 460 -87 88 -88 87 -547 -547 -548 -548 407 -407 408
-408 -280 -280 -280 -280 -590 590 -590 590 -88 -88 -87 -87 590 -590 590
-590 -222 -222 c-123 -123 -227 -223 -233 -223 -5 0 -488 478 -1073 1063
l-1062 1062 595 595 595 595 478 -478 477 -477 88 88 87 87 -568 566 -567 566
-674 -678z"/>
</g>
</svg>
